<svg xmlns="http://www.w3.org/2000/svg" xmlns:xlink="http://www.w3.org/1999/xlink" version="1.1" x="0px" y="0px" viewBox="0 0 100 125" enable-background="new 0 0 100 100" xml:space="preserve"><path d="M93.38,37.046c-0.234-0.489-4.927-1.191-11.044-1.768c-5.162-0.49-13.444-0.161-16.712,0.294  c-1.34,0.19-3.787,0.661-6.181,1.309c-2.698,0.736-5.35,1.676-6.46,1.921c-1.07,0.226-1.907,0.309-2.776,0.288v-0.01  c-0.069,0.004-0.134,0.002-0.202,0.006c-0.068-0.004-0.134-0.002-0.2-0.006v0.01c-0.88,0.021-1.721-0.062-2.787-0.288  c-1.097-0.245-3.751-1.185-6.463-1.921c-2.393-0.648-4.841-1.12-6.177-1.309c-3.261-0.455-11.555-0.784-16.719-0.294  c-6.114,0.577-10.793,1.28-11.04,1.768c-0.162,0.355-0.539,4.915-0.037,5.403c0.484,0.493,2.211,1.464,2.637,3.081  c0.422,1.615,2.117,13.22,5.903,16.397c6.221,5.227,27.166,5.457,30.774-13.591c0.501-2.598,1.149-4.122,2.272-4.545  c0.464-0.169,1.137-0.301,1.836-0.303c0.687,0.002,1.359,0.134,1.821,0.303c1.125,0.422,1.788,1.947,2.282,4.545  c3.604,19.047,24.548,18.818,30.782,13.591c3.785-3.176,5.481-14.782,5.897-16.397c0.417-1.616,2.145-2.587,2.636-3.081  C93.916,41.961,93.546,37.401,93.38,37.046z M42.612,50.055c-3.263,14.926-19.033,13.189-22.844,12.012  c-1.681-0.515-6.582-2.458-7.365-14.602c-0.551-8.445,3.405-8.958,9.015-9.662c4.56-0.585,8.606-0.34,11.34,0.013  c2.739,0.357,9.135,1.707,9.771,4.027C43.158,44.159,43.324,46.791,42.612,50.055z M87.6,47.466  c-0.792,12.144-5.686,14.086-7.361,14.602c-3.823,1.176-19.598,2.914-22.851-12.012c-0.708-3.264-0.544-5.896,0.093-8.211  c0.636-2.32,7.015-3.67,9.763-4.027c2.725-0.353,6.785-0.598,11.341-0.013C84.188,38.508,88.153,39.021,87.6,47.466z"/><text x="0" y="115" fill="#000000" font-size="5px" font-weight="bold" font-family="'Helvetica Neue', Helvetica, Arial-Unicode, Arial, Sans-serif">Created by Pedro Santos</text><text x="0" y="120" fill="#000000" font-size="5px" font-weight="bold" font-family="'Helvetica Neue', Helvetica, Arial-Unicode, Arial, Sans-serif">from the Noun Project</text></svg>